#N canvas 190 233 831 484 10;
#X obj 24 13 adc~;
#X obj 225 220 writesf~ 2;
#X msg 297 69 start;
#X msg 284 180 open \$1;
#X obj 284 134 r filename;
#X obj 482 154 dac~;
#X obj 481 124 readsf~ 2;
#X msg 479 50 start;
#X obj 30 143 *~;
#X obj 199 100 tgl 15 0 empty empty empty 17 7 0 10 -262144 -1 -1 0
1;
#X msg 268 68 1;
#X msg 199 69 0;
#X obj 268 12 r start;
#X obj 199 13 r stop;
#X msg 226 69 stop;
#X obj 494 -25 r play;
#X obj 199 42 t b b;
#X msg 522 75 open \$1;
#X obj 494 21 t b a;
#X obj 268 41 t b b;
#X obj 284 158 symbol;
#X obj 522 52 symbol;
#X obj 230 103 print Finished recording !!!;
#X connect 0 0 8 0;
#X connect 0 1 8 0;
#X connect 2 0 1 0;
#X connect 3 0 1 0;
#X connect 4 0 20 0;
#X connect 6 0 5 0;
#X connect 6 1 5 1;
#X connect 7 0 6 0;
#X connect 8 0 1 0;
#X connect 8 0 1 1;
#X connect 9 0 8 1;
#X connect 10 0 9 0;
#X connect 11 0 9 0;
#X connect 12 0 19 0;
#X connect 13 0 16 0;
#X connect 14 0 1 0;
#X connect 14 0 22 0;
#X connect 15 0 18 0;
#X connect 16 0 11 0;
#X connect 16 1 14 0;
#X connect 17 0 6 0;
#X connect 18 0 7 0;
#X connect 18 1 21 0;
#X connect 19 0 10 0;
#X connect 19 1 2 0;
#X connect 20 0 3 0;
#X connect 21 0 17 0;
