#N canvas -6 22 1366 720 10;
#X floatatom 407 210 5 0 0 0 - - -, f 5;
#X obj 50 329 * 1;
#X obj 52 386 osc~;
#X obj 51 416 *~ 1;
#X floatatom 94 359 5 0 0 0 - - -, f 5;
#X obj 95 385 osc~;
#X obj 50 329 * 1;
#X obj 52 386 osc~;
#X obj 51 416 *~ 1;
#X floatatom 137 355 5 0 0 0 - - -, f 5;
#X obj 138 381 osc~;
#X floatatom 178 352 5 0 0 0 - - -, f 5;
#X obj 179 378 osc~;
#X floatatom 224 352 5 0 0 0 - - -, f 5;
#X obj 225 378 osc~;
#X floatatom 271 352 5 0 0 0 - - -, f 5;
#X obj 272 378 osc~;
#X floatatom 316 351 5 0 0 0 - - -, f 5;
#X obj 317 377 osc~;
#X floatatom 359 352 5 0 0 0 - - -, f 5;
#X obj 360 378 osc~;
#X obj 93 328 * 2;
#X obj 136 324 * 3;
#X obj 177 321 * 4;
#X obj 223 321 * 5;
#X obj 270 321 * 6;
#X obj 315 320 * 7;
#X obj 358 321 * 8;
#X obj 206 580 dac~;
#X floatatom 49 360 5 0 0 0 - - -, f 5;
#X obj 94 415 *~ 0.6;
#X obj 137 411 *~ 0.6;
#X obj 178 408 *~ 0.7;
#X obj 224 408 *~ 0.5;
#X obj 271 409 *~ 0.2;
#X obj 316 407 *~ 0.5;
#X obj 359 408 *~ 0.1;
#X obj 193 492 *~ 0.4;
#X connect 0 0 22 0;
#X connect 0 0 23 0;
#X connect 0 0 24 0;
#X connect 0 0 25 0;
#X connect 0 0 26 0;
#X connect 0 0 27 0;
#X connect 0 0 21 0;
#X connect 0 0 1 0;
#X connect 1 0 29 0;
#X connect 2 0 3 0;
#X connect 3 0 37 0;
#X connect 4 0 5 0;
#X connect 5 0 30 0;
#X connect 7 0 8 0;
#X connect 9 0 10 0;
#X connect 10 0 31 0;
#X connect 11 0 12 0;
#X connect 12 0 32 0;
#X connect 13 0 14 0;
#X connect 14 0 33 0;
#X connect 15 0 16 0;
#X connect 16 0 34 0;
#X connect 17 0 18 0;
#X connect 18 0 35 0;
#X connect 19 0 20 0;
#X connect 20 0 36 0;
#X connect 21 0 4 0;
#X connect 22 0 9 0;
#X connect 23 0 11 0;
#X connect 24 0 13 0;
#X connect 25 0 15 0;
#X connect 26 0 17 0;
#X connect 27 0 19 0;
#X connect 29 0 2 0;
#X connect 30 0 37 0;
#X connect 31 0 37 0;
#X connect 32 0 37 0;
#X connect 33 0 37 0;
#X connect 34 0 37 0;
#X connect 35 0 37 0;
#X connect 36 0 37 0;
#X connect 37 0 28 0;
#X connect 37 0 28 1;
