#N canvas 16 22 1362 668 10;
#X obj -1807 -1791 +~;
#X obj -1792 -1820 *~;
#X obj -1682 -1704 line~;
#X msg -1682 -1734 \$1 10;
#X obj -1805 -1499 dac~;
#X obj -1792 -1871 *~;
#X obj -1729 -1844 *~;
#X obj -1477 -1806 vline~;
#X obj -1621 -1809 vline~;
#X obj -1682 -1667 *~;
#X obj -1621 -1893 nbx 5 14 -1e+37 1e+37 0 0 empty index empty 0 -8
0 10 -262144 -1 -1 0 256;
#X obj -1621 -1869 pack f f;
#X msg -1621 -1840 \$1 \, 0 \$2;
#X obj -1807 -1658 *~;
#X obj -1808 -1726 osc~;
#X obj -1778 -1725 phasor~;
#X msg -1476 -1874 0.7 700 \, 0 \$1 500;
#X obj -1808 -1610 lop~ 200;
#X obj -1807 -1565 hip~ 100;
#X obj -1792 -1845 osc~;
#X obj -1806 -1945 r carrier;
#X obj -1763 -1905 r harmonicity;
#X obj -1280 -1846 line~;
#X msg -1280 -1869 \$1 10;
#X obj -1318 -1930 r index;
#X obj -1683 -1773 r volume;
#X obj -1476 -1909 r duration;
#X text -1401 -1659 put values which made it sound like a violin here:
carrier = pitch \; keep it above 300 and under 1600 harmonicity = 0
index = 0 duration = 1000;
#X obj -1597 -1929 loadbang;
#X connect 0 0 15 0;
#X connect 1 0 0 1;
#X connect 2 0 9 0;
#X connect 3 0 2 0;
#X connect 5 0 6 0;
#X connect 5 0 19 0;
#X connect 6 0 1 1;
#X connect 7 0 9 1;
#X connect 8 0 6 1;
#X connect 9 0 13 1;
#X connect 10 0 11 0;
#X connect 11 0 12 0;
#X connect 12 0 8 0;
#X connect 13 0 17 0;
#X connect 15 0 13 0;
#X connect 16 0 7 0;
#X connect 16 0 7 0;
#X connect 17 0 18 0;
#X connect 18 0 4 1;
#X connect 18 0 4 0;
#X connect 19 0 1 0;
#X connect 20 0 5 0;
#X connect 20 0 0 0;
#X connect 21 0 5 1;
#X connect 23 0 22 0;
#X connect 24 0 23 0;
#X connect 25 0 3 0;
#X connect 26 0 11 1;
#X connect 26 0 16 0;
#X connect 28 0 10 0;
#X connect 28 0 16 0;
