#N canvas 172 22 952 716 10;
#X obj 71 271 * 1;
#X obj 75 343 *~ 1;
#X floatatom 118 286 5 0 0 0 - - -, f 5;
#X obj 75 343 *~ 1;
#X floatatom 161 282 5 0 0 0 - - -, f 5;
#X floatatom 202 279 5 0 0 0 - - -, f 5;
#X floatatom 248 279 5 0 0 0 - - -, f 5;
#X floatatom 295 279 5 0 0 0 - - -, f 5;
#X floatatom 340 278 5 0 0 0 - - -, f 5;
#X floatatom 383 279 5 0 0 0 - - -, f 5;
#X obj 117 255 * 2;
#X obj 160 251 * 3;
#X obj 201 248 * 4;
#X obj 247 248 * 5;
#X obj 294 248 * 6;
#X obj 339 247 * 7;
#X obj 382 248 * 8;
#X obj 230 507 dac~;
#X floatatom 73 287 5 0 0 0 - - -, f 5;
#X obj 118 342 *~ 0.6;
#X obj 161 338 *~ 0.6;
#X obj 202 335 *~ 0.7;
#X obj 248 335 *~ 0.5;
#X obj 295 336 *~ 0.2;
#X obj 340 334 *~ 0.5;
#X obj 383 335 *~ 0.1;
#X obj 220 427 *~ 0.4;
#X obj 417 96 nbx 5 14 -1e+37 1e+37 0 0 empty freq empty 0 -8 0 10
-262144 -1 -1 0 256;
#X obj 561 210;
#X obj 291 432 *~;
#X obj 498 437 vline~;
#X msg 464 359 0.7 500 \, 0 \$1 500;
#X obj 580 266 nbx 5 14 -1e+37 1e+37 0 0 empty duration empty 0 -8
0 10 -262144 -1 -1 0 256;
#X obj 183 25 r pitch;
#X msg 143 71 \; freq \$1 \; duration 700 \;;
#X obj 30 319 osc~;
#X obj 106 315 osc~;
#X obj 162 308 osc~;
#X obj 203 305 osc~;
#X obj 249 305 osc~;
#X obj 296 305 osc~;
#X obj 341 304 osc~;
#X obj 384 305 osc~;
#X connect 0 0 18 0;
#X connect 1 0 26 0;
#X connect 2 0 36 0;
#X connect 4 0 37 0;
#X connect 5 0 38 0;
#X connect 6 0 39 0;
#X connect 7 0 40 0;
#X connect 8 0 41 0;
#X connect 9 0 42 0;
#X connect 10 0 2 0;
#X connect 11 0 4 0;
#X connect 12 0 5 0;
#X connect 13 0 6 0;
#X connect 14 0 7 0;
#X connect 15 0 8 0;
#X connect 16 0 9 0;
#X connect 18 0 35 0;
#X connect 19 0 26 0;
#X connect 20 0 26 0;
#X connect 21 0 26 0;
#X connect 22 0 26 0;
#X connect 23 0 26 0;
#X connect 24 0 26 0;
#X connect 25 0 26 0;
#X connect 26 0 29 0;
#X connect 27 0 0 0;
#X connect 27 0 10 0;
#X connect 27 0 11 0;
#X connect 27 0 12 0;
#X connect 27 0 13 0;
#X connect 27 0 14 0;
#X connect 27 0 15 0;
#X connect 27 0 16 0;
#X connect 29 0 17 0;
#X connect 29 0 17 1;
#X connect 30 0 29 1;
#X connect 31 0 30 0;
#X connect 32 0 31 0;
#X connect 33 0 34 0;
#X connect 35 0 1 0;
#X connect 36 0 19 0;
#X connect 37 0 20 0;
#X connect 38 0 21 0;
#X connect 39 0 22 0;
#X connect 40 0 23 0;
#X connect 41 0 24 0;
#X connect 42 0 25 0;
